<svg xmlns="http://www.w3.org/2000/svg" xmlns:xlink="http://www.w3.org/1999/xlink" width="272.008" height="243.524" viewBox="0 0 272.008 243.524">
  <defs>
    <clipPath id="clip-path">
      <rect id="長方形_28" data-name="長方形 28" width="272.008" height="243.524" fill="none"/>
    </clipPath>
    <linearGradient id="linear-gradient" x1="0.5" x2="0.5" y2="1" gradientUnits="objectBoundingBox">
      <stop offset="0" stop-color="#a9e8ff"/>
      <stop offset="1" stop-color="#5aef91"/>
    </linearGradient>
    <linearGradient id="linear-gradient-2" x1="0.079" y1="0.585" x2="1.034" y2="0.564" gradientUnits="objectBoundingBox">
      <stop offset="0" stop-color="#3da9fd"/>
      <stop offset="1" stop-color="#bae9f8"/>
    </linearGradient>
    <linearGradient id="linear-gradient-3" x1="0.5" x2="0.5" y2="1" gradientUnits="objectBoundingBox">
      <stop offset="0" stop-color="#68d8e4"/>
      <stop offset="1" stop-color="#d4eef9"/>
    </linearGradient>
  </defs>
  <g id="グループ_1342" data-name="グループ 1342" transform="translate(-823.996 -1498.476)">
    <g id="グループ_17" data-name="グループ 17" transform="translate(-71.004 -1158.524)">
      <g id="グループ_16" data-name="グループ 16" transform="translate(895 2657)">
        <g id="グループ_15" data-name="グループ 15" transform="translate(0 0)" clip-path="url(#clip-path)">
          <path id="パス_402" data-name="パス 402" d="M74.361,26.876l97.254,168.433c8.837,15.306,9.48,29.189,3.417,39.141a22.743,22.743,0,0,0,4.589-5.48l54.727-94.788c4.117-7.129,4.117-18.8,0-25.93L179.62,13.465C175.5,6.334,165.4.5,157.164.5H47.712C42.128.5,35.69,3.184,30.836,7.136c15.008-7.154,31.79-.589,43.525,19.74" transform="translate(33.538 0.543)" fill="url(#linear-gradient)"/>
          <path id="パス_403" data-name="パス 403" d="M175.574,236.038a1.045,1.045,0,0,1-.889-1.589c6.142-10.083,4.925-23.6-3.432-38.074L74,27.943c-8.2-14.2-19.079-22.016-30.646-22.016a26.668,26.668,0,0,0-11.526,2.7A1.044,1.044,0,0,1,30.721,6.87C35.927,2.632,42.647,0,48.257,0H157.706c8.588,0,19.068,6.052,23.362,13.488L235.8,108.274c4.292,7.438,4.292,19.538,0,26.974l-54.727,94.788a23.69,23.69,0,0,1-4.8,5.737,1.041,1.041,0,0,1-.7.265M43.355,3.839c12.344,0,23.87,8.19,32.454,23.06L173.06,195.332c6.981,12.087,9.165,23.615,6.438,33.247L233.985,134.2c3.962-6.86,3.962-18.024,0-24.886L179.261,14.532C175.3,7.67,165.628,2.088,157.706,2.088H48.257a23.491,23.491,0,0,0-9.073,2.071,27.412,27.412,0,0,1,4.171-.319" transform="translate(32.993 0)" fill="#fff"/>
          <path id="パス_404" data-name="パス 404" d="M204.376,129.744l-29.621-51.3L36.43,78.335C18.752,78.314,6.289,71.013.711,60.782A29.2,29.2,0,0,0,3.283,68.4L15.93,90.361c-.031-.01-.067-.015-.1-.025l30.091,52.115,11.975,20.8a19.7,19.7,0,0,0,1.879,2.687c4.793,5.929,13.465,10.434,20.7,10.434H189.928c5.975,0,12.924-3.081,17.868-7.492,6.06-9.952,5.417-23.83-3.42-39.136" transform="translate(0.773 66.107)" fill="url(#linear-gradient-2)"/>
          <path id="パス_405" data-name="パス 405" d="M190.471,177.961H81.02c-7.4,0-16.444-4.551-21.513-10.82a20.953,20.953,0,0,1-1.973-2.822L15.471,91.4a1.06,1.06,0,0,1-.127-.365L2.922,69.465A30.3,30.3,0,0,1,.234,61.539a1.043,1.043,0,0,1,1.937-.712c5.8,10.632,18.805,16.991,34.8,17.008l138.327.109a1.046,1.046,0,0,1,.9.522l29.619,51.3c8.751,15.162,9.962,29.44,3.407,40.2a1.064,1.064,0,0,1-.2.236c-5.28,4.712-12.565,7.755-18.563,7.755M17.5,90.749l41.84,72.528a18.47,18.47,0,0,0,1.781,2.543c4.712,5.829,13.077,10.054,19.895,10.054H190.471c5.47,0,12.148-2.793,17.056-7.123,6.05-10.066,4.806-23.534-3.511-37.94L174.7,80.031,36.971,79.922C23.057,79.908,11.26,75.248,4.125,67.2a12.6,12.6,0,0,0,.607,1.223l12.645,21.96a1.008,1.008,0,0,1,.127.363" transform="translate(0.23 65.563)" fill="#fff"/>
          <path id="パス_406" data-name="パス 406" d="M29.035,111.138c-.081-.109-.163-.213-.242-.319.079.106.163.211.242.319" transform="translate(31.316 120.528)" fill="#178f93"/>
          <path id="パス_407" data-name="パス 407" d="M29.581,112.727a1.051,1.051,0,0,1-.831-.409l-.148-.2-.008-.013-.006-.006,0,0c-.013-.017-.065-.083-.079-.1l0-.006a1.043,1.043,0,0,1,1.666-1.255l0,0h0v0l.033.048.04.048.169.223a1.043,1.043,0,0,1-.835,1.668" transform="translate(30.772 119.983)" fill="#fff"/>
          <path id="パス_408" data-name="パス 408" d="M1.163,127.249C3.411,134.111,13.24,143.9,36.75,143.9l58.487.046L162.832,26.877c12.244-21.2,29.974-27.437,45.456-18.736C203.336,3.65,196.292.5,190.248.5H80.8C72.563.5,62.457,6.335,58.34,13.466L3.616,108.252c-4.119,7.131-3.232,16.617-2.453,19" transform="translate(0.547 0.544)" fill="url(#linear-gradient-3)"/>
          <path id="パス_409" data-name="パス 409" d="M95.782,145.534h0L37.3,145.486c-22.8,0-33.951-9.357-36.577-17.367-.829-2.526-1.808-12.313,2.541-19.845L57.983,13.488C62.275,6.05,72.755,0,81.344,0H190.8c6.085,0,13.44,3.106,18.741,7.912a1.044,1.044,0,0,1-1.213,1.683,27.137,27.137,0,0,0-13.394-3.668c-11.565,0-22.448,7.82-30.646,22.016L96.688,145.012a1.047,1.047,0,0,1-.906.522M81.344,2.088c-7.922,0-17.592,5.582-21.553,12.444L5.067,109.318C1.033,116.3,2.052,125.491,2.7,127.468,5.11,134.818,15.615,143.4,37.3,143.4l57.883.048L162.475,26.9c8.586-14.87,20.112-23.06,32.454-23.06a27.513,27.513,0,0,1,5.447.547,23.773,23.773,0,0,0-9.58-2.3Z" transform="translate(0 0)" fill="#fff"/>
          <path id="パス_410" data-name="パス 410" d="M29.572,111.753c.029.031.05.063.079.094l-.01-.023c-.021-.025-.046-.048-.069-.071" transform="translate(32.163 121.544)" fill="#178f93"/>
          <path id="パス_411" data-name="パス 411" d="M30.179,113.429a1.049,1.049,0,0,1-.764-.332c-.017-.017-.073-.084-.088-.1a1.071,1.071,0,0,1,.094-1.455,1.015,1.015,0,0,1,1.415.017c.027.025.121.125.144.152a1.158,1.158,0,0,1,.175.313,1.041,1.041,0,0,1-.428,1.253,1.025,1.025,0,0,1-.549.157" transform="translate(31.635 121.006)" fill="#fff"/>
        </g>
      </g>
    </g>
    <text id="Business_Consulting" data-name="Business Consulting" transform="translate(876.464 1568.5) rotate(-60)" fill="#fff" font-size="12" font-family="KozGoPro-Regular, Kozuka Gothic Pro"><tspan x="-53.586" y="0">Business Consulting</tspan></text>
    <text id="Maintenance_Support" data-name="Maintenance Support" transform="translate(960 1732)" fill="#fff" font-size="12" font-family="KozGoPro-Regular, Kozuka Gothic Pro"><tspan x="-58.314" y="0">Maintenance Support</tspan></text>
    <text id="Development_construction" data-name="Development construction" transform="translate(1042.723 1575.008) rotate(59)" fill="#fff" font-size="12" font-family="KozGoPro-Regular, Kozuka Gothic Pro"><tspan x="-72.204" y="0">Development construction</tspan></text>
  </g>
</svg>
