<?xml version="1.0" standalone="no"?>
<!DOCTYPE svg PUBLIC "-//W3C//DTD SVG 20010904//EN"
 "http://www.w3.org/TR/2001/REC-SVG-20010904/DTD/svg10.dtd">
<svg version="1.0" xmlns="http://www.w3.org/2000/svg"
 width="632.000000pt" height="632.000000pt" viewBox="0 0 632.000000 632.000000"
 preserveAspectRatio="xMidYMid meet">
<metadata>
Created by potrace 1.14, written by Peter Selinger 2001-2017
</metadata>
<g transform="translate(0.000000,632.000000) scale(0.100000,-0.100000)"
fill="#000000" stroke="none">
<path d="M3169 6300 c0 -8 -2 -571 -3 -1250 l-1 -1235 -70 0 -69 0 -2 155 c-2
85 -6 393 -9 684 l-6 529 -53 56 c-70 74 -97 104 -182 197 -178 196 -204 224
-212 224 -4 0 -6 -408 -6 -907 1 -500 0 -915 -2 -924 -4 -14 -67 -16 -634 -16
-558 0 -679 -4 -632 -20 6 -3 12 -8 12 -13 0 -6 233 -365 257 -395 4 -5 20
-28 34 -50 l26 -40 194 1 c318 3 713 6 730 5 13 -1 16 -14 16 -69 l-1 -69
-925 2 c-509 0 -935 -1 -945 -4 -16 -3 -17 -6 -5 -15 8 -6 28 -29 44 -51 17
-22 35 -45 40 -52 6 -6 20 -24 32 -40 12 -15 30 -38 40 -51 10 -12 26 -32 35
-45 10 -12 42 -53 73 -92 30 -38 58 -74 63 -80 4 -5 32 -41 62 -79 30 -38 64
-82 75 -97 32 -43 189 -244 195 -249 3 -3 46 -57 95 -120 48 -63 94 -120 102
-126 7 -6 13 -16 13 -22 0 -6 4 -12 8 -14 5 -2 32 -34 62 -73 49 -64 109 -141
135 -172 6 -7 15 -18 20 -25 6 -7 50 -65 99 -128 50 -63 103 -131 118 -150 16
-19 32 -39 36 -45 32 -44 191 -245 209 -265 13 -14 23 -28 23 -31 0 -3 9 -17
21 -30 11 -13 49 -59 82 -103 119 -151 152 -194 182 -232 17 -21 48 -61 70
-89 22 -27 65 -81 95 -120 30 -38 58 -74 62 -80 18 -22 217 -275 291 -370 43
-55 81 -100 84 -100 4 0 7 558 9 1240 1 682 2 1243 3 1246 0 3 31 6 68 5 l67
-1 2 -155 c1 -85 5 -393 9 -684 4 -391 9 -532 18 -541 7 -6 50 -54 97 -105
121 -133 191 -209 225 -245 17 -17 49 -52 73 -78 23 -25 42 -43 43 -39 1 4 2
421 3 927 l1 920 638 0 c500 0 636 3 632 12 -2 7 -31 53 -65 102 -33 50 -60
95 -60 100 0 5 -4 11 -8 13 -4 2 -35 46 -69 98 -34 52 -66 100 -72 107 -6 7
-11 15 -11 18 0 3 -9 15 -20 27 -11 12 -20 27 -20 33 0 10 -207 11 -787 2
l-162 -2 2 71 1 71 929 -1 c511 -1 934 2 940 6 6 4 -11 33 -45 75 -52 64 -297
375 -345 439 -12 16 -31 40 -42 54 -48 60 -384 488 -471 600 -52 67 -100 127
-105 133 -6 7 -26 32 -45 57 -19 25 -37 47 -40 50 -3 3 -19 23 -35 44 -62 81
-113 147 -215 276 -96 122 -243 309 -290 370 -11 14 -28 36 -39 50 -54 67
-379 481 -401 510 -82 108 -153 195 -161 198 -5 2 -9 10 -9 17 0 7 -3 15 -8
17 -4 2 -47 55 -96 118 -113 145 -116 149 -117 130z m-4 -3060 c0 -36 3 -70 7
-76 4 -5 31 -9 62 -8 l55 2 -1 -74 -1 -75 -126 3 -126 3 -1 140 c-1 77 1 144
3 148 3 4 32 7 66 5 l61 -3 1 -65z"/>
</g>
</svg>
